<?xml version="1.0" encoding="UTF-8"?>
<svg width="700pt" height="700pt" version="1.1" viewBox="0 0 700 700" xmlns="http://www.w3.org/2000/svg" xmlns:xlink="http://www.w3.org/1999/xlink">
 <defs>
  <symbol id="r" overflow="visible">
   <path d="m2.4688-0.14062c-0.125 0.0625-0.26172 0.10938-0.40625 0.14062-0.13672 0.03125-0.27734 0.046875-0.42188 0.046875-0.44922 0-0.80469-0.125-1.0625-0.375-0.26172-0.25-0.39062-0.58594-0.39062-1.0156 0-0.42578 0.12891-0.76562 0.39062-1.0156 0.25781-0.25 0.61328-0.375 1.0625-0.375 0.14453 0 0.28516 0.015625 0.42188 0.046875 0.14453 0.03125 0.28125 0.085938 0.40625 0.15625v0.54688c-0.125-0.082031-0.25-0.14453-0.375-0.1875-0.125-0.039063-0.25781-0.0625-0.39062-0.0625-0.25 0-0.44922 0.078125-0.59375 0.23438-0.13672 0.15625-0.20312 0.375-0.20312 0.65625s0.066406 0.5 0.20312 0.65625c0.14453 0.15625 0.34375 0.23438 0.59375 0.23438 0.13281 0 0.26562-0.019531 0.39062-0.0625 0.125-0.039063 0.25-0.10156 0.375-0.1875z"/>
  </symbol>
  <symbol id="d" overflow="visible">
   <path d="m1.8125-1.4688c-0.0625-0.019531-0.12109-0.035156-0.17188-0.046875-0.054687-0.019531-0.10938-0.03125-0.17188-0.03125-0.16797 0-0.29688 0.058594-0.39062 0.17188-0.085937 0.10547-0.125 0.25781-0.125 0.45312v0.92188h-0.64062v-2.0156h0.64062v0.32812c0.082031-0.13281 0.17578-0.22656 0.28125-0.28125 0.11328-0.0625 0.24219-0.09375 0.39062-0.09375h0.0625c0.03125 0 0.070312 0.007812 0.125 0.015625z"/>
  </symbol>
  <symbol id="b" overflow="visible">
   <path d="m2.3281-1.0156v0.1875h-1.5156c0.019531 0.14844 0.078125 0.26172 0.17188 0.34375 0.09375 0.074219 0.22266 0.10938 0.39062 0.10938 0.13281 0 0.26953-0.019531 0.40625-0.0625 0.14453-0.039062 0.29688-0.10156 0.45312-0.1875v0.5c-0.15625 0.0625-0.3125 0.10547-0.46875 0.125-0.14844 0.03125-0.29688 0.046875-0.45312 0.046875-0.36719 0-0.65234-0.085938-0.85938-0.26562-0.19922-0.1875-0.29688-0.44531-0.29688-0.78125 0-0.33203 0.097656-0.59375 0.29688-0.78125 0.19531-0.1875 0.47266-0.28125 0.82812-0.28125 0.3125 0 0.5625 0.09375 0.75 0.28125 0.19531 0.1875 0.29688 0.44531 0.29688 0.76562zm-0.67188-0.21875c0-0.11328-0.039062-0.20703-0.10938-0.28125-0.0625-0.082031-0.15625-0.125-0.28125-0.125s-0.22656 0.039063-0.29688 0.10938c-0.074219 0.074219-0.12109 0.17188-0.14062 0.29688z"/>
  </symbol>
  <symbol id="i" overflow="visible">
   <path d="m1.2188-0.90625c-0.13672 0-0.24219 0.027344-0.3125 0.078125-0.0625 0.042969-0.09375 0.10547-0.09375 0.1875 0 0.085937 0.023438 0.15234 0.078125 0.20312 0.050781 0.042969 0.12891 0.0625 0.23438 0.0625 0.11328 0 0.21094-0.039062 0.29688-0.125 0.082031-0.09375 0.125-0.20312 0.125-0.32812v-0.078125zm0.98438-0.25v1.1562h-0.65625v-0.29688c-0.085937 0.125-0.18359 0.21484-0.29688 0.26562-0.10547 0.050781-0.23438 0.078125-0.39062 0.078125-0.21094 0-0.38281-0.054688-0.51562-0.17188-0.125-0.125-0.1875-0.28516-0.1875-0.48438 0-0.22656 0.078125-0.39844 0.23438-0.51562 0.16406-0.11328 0.42578-0.17188 0.78125-0.17188h0.375v-0.046875c0-0.10156-0.042969-0.17578-0.125-0.21875-0.074219-0.050781-0.19922-0.078125-0.375-0.078125-0.13672 0-0.26562 0.015625-0.39062 0.046875-0.11719 0.03125-0.22656 0.074219-0.32812 0.125v-0.5c0.14453-0.03125 0.28516-0.050781 0.42188-0.0625 0.13281-0.019531 0.27344-0.03125 0.42188-0.03125 0.36328 0 0.625 0.074219 0.78125 0.21875 0.16406 0.13672 0.25 0.36719 0.25 0.6875z"/>
  </symbol>
  <symbol id="c" overflow="visible">
   <path d="m1.0156-2.5938v0.57812h0.65625v0.45312h-0.65625v0.85938c0 0.09375 0.015625 0.15625 0.046875 0.1875 0.039062 0.03125 0.11719 0.046875 0.23438 0.046875h0.32812v0.46875h-0.5625c-0.25 0-0.42969-0.050781-0.53125-0.15625-0.10547-0.10156-0.15625-0.28516-0.15625-0.54688v-0.85938h-0.32812v-0.45312h0.32812v-0.57812z"/>
  </symbol>
  <symbol id="h" overflow="visible">
   <path d="m1.6875-1.7188v-1.0781h0.64062v2.7969h-0.64062v-0.29688c-0.09375 0.125-0.19531 0.21484-0.29688 0.26562-0.10547 0.050781-0.23047 0.078125-0.375 0.078125-0.25 0-0.45312-0.097656-0.60938-0.29688-0.15625-0.19531-0.23438-0.44531-0.23438-0.75 0-0.3125 0.078125-0.56641 0.23438-0.76562 0.15625-0.19531 0.35938-0.29688 0.60938-0.29688 0.13281 0 0.25391 0.03125 0.35938 0.09375 0.11328 0.054688 0.21875 0.13672 0.3125 0.25zm-0.4375 1.2969c0.14453 0 0.25391-0.046875 0.32812-0.14062 0.070313-0.10156 0.10938-0.25 0.10938-0.4375 0-0.19531-0.039062-0.34375-0.10938-0.4375-0.074219-0.10156-0.18359-0.15625-0.32812-0.15625-0.13672 0-0.24219 0.054688-0.3125 0.15625-0.074219 0.09375-0.10938 0.24219-0.10938 0.4375 0 0.1875 0.035156 0.33594 0.10938 0.4375 0.070312 0.09375 0.17578 0.14062 0.3125 0.14062z"/>
  </symbol>
  <symbol id="g" overflow="visible">
   <path d="m1.3906-0.42188c0.13281 0 0.23828-0.046875 0.3125-0.14062 0.070313-0.10156 0.10938-0.25 0.10938-0.4375 0-0.19531-0.039062-0.34375-0.10938-0.4375-0.074219-0.10156-0.17969-0.15625-0.3125-0.15625-0.14844 0-0.25781 0.054688-0.32812 0.15625-0.074219 0.09375-0.10938 0.24219-0.10938 0.4375 0 0.1875 0.035156 0.33594 0.10938 0.4375 0.070312 0.09375 0.17969 0.14062 0.32812 0.14062zm-0.4375-1.2969c0.09375-0.11328 0.19141-0.19531 0.29688-0.25 0.10156-0.0625 0.22656-0.09375 0.375-0.09375 0.25 0 0.45312 0.10156 0.60938 0.29688 0.15625 0.19922 0.23438 0.45312 0.23438 0.76562 0 0.30469-0.078125 0.55469-0.23438 0.75-0.15625 0.19922-0.35938 0.29688-0.60938 0.29688-0.14844 0-0.27344-0.027344-0.375-0.078125-0.10547-0.050781-0.20312-0.14062-0.29688-0.26562v0.29688h-0.64062v-2.7969h0.64062z"/>
  </symbol>
  <symbol id="e" overflow="visible">
   <path d="m0.046875-2.0156h0.64062l0.54688 1.375 0.45312-1.375h0.65625l-0.85938 2.2031c-0.085937 0.22656-0.18359 0.38281-0.29688 0.46875-0.11719 0.09375-0.26562 0.14062-0.45312 0.14062h-0.35938v-0.42188h0.20312c0.10156 0 0.17969-0.023438 0.23438-0.0625 0.050781-0.03125 0.085938-0.089844 0.10938-0.17188l0.015625-0.0625z"/>
  </symbol>
  <symbol id="a" overflow="visible">
   <path d="m1.2656-1.6094c-0.13672 0-0.24609 0.054687-0.32812 0.15625-0.074219 0.10547-0.10938 0.25781-0.10938 0.45312 0 0.1875 0.035156 0.33594 0.10938 0.4375 0.082031 0.10547 0.19141 0.15625 0.32812 0.15625 0.14453 0 0.25391-0.050781 0.32812-0.15625 0.070312-0.10156 0.10938-0.25 0.10938-0.4375 0-0.19531-0.039063-0.34766-0.10938-0.45312-0.074219-0.10156-0.18359-0.15625-0.32812-0.15625zm0-0.45312c0.35156 0 0.625 0.09375 0.8125 0.28125 0.19531 0.1875 0.29688 0.44922 0.29688 0.78125 0 0.32422-0.10156 0.57812-0.29688 0.76562-0.1875 0.1875-0.46094 0.28125-0.8125 0.28125-0.34375 0-0.61719-0.09375-0.8125-0.28125-0.19922-0.1875-0.29688-0.44141-0.29688-0.76562 0-0.33203 0.097656-0.59375 0.29688-0.78125 0.19531-0.1875 0.46875-0.28125 0.8125-0.28125z"/>
  </symbol>
  <symbol id="f" overflow="visible">
   <path d="m2.3438-1.2344v1.2344h-0.65625v-0.9375c0-0.17578-0.007812-0.29688-0.015625-0.35938 0-0.070313-0.011719-0.125-0.03125-0.15625-0.03125-0.039063-0.070313-0.070313-0.10938-0.09375-0.042969-0.019531-0.089844-0.03125-0.14062-0.03125-0.13672 0-0.24609 0.054687-0.32812 0.15625-0.074219 0.10547-0.10938 0.25-0.10938 0.4375v0.98438h-0.64062v-2.7969h0.64062v1.0781c0.09375-0.11328 0.19141-0.19531 0.29688-0.25 0.11328-0.0625 0.23828-0.09375 0.375-0.09375 0.22656 0 0.40625 0.074219 0.53125 0.21875 0.125 0.13672 0.1875 0.33984 0.1875 0.60938z"/>
  </symbol>
  <symbol id="q" overflow="visible">
   <path d="m1.6406-2.7969v0.42188h-0.35938c-0.09375 0-0.16406 0.015625-0.20312 0.046875-0.03125 0.03125-0.046875 0.089844-0.046875 0.17188v0.14062h0.5625v0.45312h-0.5625v1.5625h-0.64062v-1.5625h-0.32812v-0.45312h0.32812v-0.14062c0-0.21875 0.0625-0.37891 0.1875-0.48438 0.125-0.10156 0.3125-0.15625 0.5625-0.15625z"/>
  </symbol>
  <symbol id="p" overflow="visible">
   <path d="m2.1719-1.6875c0.082031-0.125 0.17969-0.21875 0.29688-0.28125 0.11328-0.0625 0.23828-0.09375 0.375-0.09375 0.22656 0 0.39844 0.074219 0.51562 0.21875 0.125 0.13672 0.1875 0.33984 0.1875 0.60938v1.2344h-0.64062v-1.0469-0.046875-0.078125c0-0.14453-0.023438-0.25-0.0625-0.3125-0.042969-0.0625-0.10938-0.09375-0.20312-0.09375-0.125 0-0.22656 0.054687-0.29688 0.15625-0.0625 0.09375-0.09375 0.24219-0.09375 0.4375v0.98438h-0.64062v-1.0469c0-0.22656-0.023437-0.375-0.0625-0.4375-0.042969-0.0625-0.10938-0.09375-0.20312-0.09375-0.125 0-0.22656 0.054687-0.29688 0.15625-0.0625 0.09375-0.09375 0.24219-0.09375 0.4375v0.98438h-0.64062v-2.0156h0.64062v0.29688c0.082031-0.11328 0.17188-0.19531 0.26562-0.25 0.10156-0.0625 0.21875-0.09375 0.34375-0.09375 0.14453 0 0.26953 0.039062 0.375 0.10938 0.10156 0.0625 0.17969 0.15234 0.23438 0.26562z"/>
  </symbol>
  <symbol id="o" overflow="visible">
   <path d="m0.34375-2.6875h0.76562l0.98438 1.8438v-1.8438h0.65625v2.6875h-0.78125l-0.96875-1.8438v1.8438h-0.65625z"/>
  </symbol>
  <symbol id="n" overflow="visible">
   <path d="m0.28125-0.78125v-1.2344h0.65625v0.20312 0.40625 0.32812 0.35938c0.007812 0.074219 0.023438 0.125 0.046875 0.15625 0.03125 0.042969 0.066406 0.074219 0.10938 0.09375 0.039062 0.023438 0.085938 0.03125 0.14062 0.03125 0.13281 0 0.23828-0.050781 0.3125-0.15625 0.082031-0.10156 0.125-0.24219 0.125-0.42188v-1h0.64062v2.0156h-0.64062v-0.29688c-0.09375 0.125-0.19922 0.21484-0.3125 0.26562-0.10547 0.050781-0.22656 0.078125-0.35938 0.078125-0.23047 0-0.40625-0.066406-0.53125-0.20312-0.125-0.14453-0.1875-0.35156-0.1875-0.625z"/>
  </symbol>
  <symbol id="m" overflow="visible">
   <path d="m2.3438-1.2344v1.2344h-0.65625v-0.9375c0-0.17578-0.007812-0.29688-0.015625-0.35938 0-0.070313-0.011719-0.125-0.03125-0.15625-0.03125-0.039063-0.070313-0.070313-0.10938-0.09375-0.042969-0.019531-0.089844-0.03125-0.14062-0.03125-0.13672 0-0.24609 0.054687-0.32812 0.15625-0.074219 0.10547-0.10938 0.25-0.10938 0.4375v0.98438h-0.64062v-2.0156h0.64062v0.29688c0.09375-0.11328 0.19141-0.19531 0.29688-0.25 0.11328-0.0625 0.23828-0.09375 0.375-0.09375 0.22656 0 0.40625 0.074219 0.53125 0.21875 0.125 0.13672 0.1875 0.33984 0.1875 0.60938z"/>
  </symbol>
  <symbol id="l" overflow="visible">
   <path d="m0.34375-2.6875h1.1406c0.34375 0 0.60156 0.078125 0.78125 0.23438 0.1875 0.14844 0.28125 0.35938 0.28125 0.64062s-0.09375 0.5-0.28125 0.65625c-0.17969 0.14844-0.4375 0.21875-0.78125 0.21875h-0.45312v0.9375h-0.6875zm0.6875 0.5v0.75h0.39062c0.125 0 0.22266-0.03125 0.29688-0.09375 0.082031-0.0625 0.125-0.15625 0.125-0.28125 0-0.11328-0.042969-0.20312-0.125-0.26562-0.074219-0.070313-0.17188-0.10938-0.29688-0.10938z"/>
  </symbol>
  <symbol id="k" overflow="visible">
   <path d="m0.3125-2.0156h0.64062v1.9844c0 0.26953-0.070313 0.47266-0.20312 0.60938-0.125 0.14453-0.30859 0.21875-0.54688 0.21875h-0.32812v-0.42188h0.10938c0.125 0 0.20703-0.03125 0.25-0.09375 0.050781-0.054688 0.078125-0.15625 0.078125-0.3125zm0-0.78125h0.64062v0.51562h-0.64062z"/>
  </symbol>
  <symbol id="j" overflow="visible">
   <path d="m1.9375-1.9531v0.53125c-0.085938-0.0625-0.17188-0.10938-0.26562-0.14062-0.085937-0.03125-0.17188-0.046875-0.26562-0.046875-0.1875 0-0.33594 0.054687-0.4375 0.15625-0.09375 0.10547-0.14062 0.25781-0.14062 0.45312 0 0.1875 0.046875 0.33594 0.14062 0.4375 0.10156 0.10547 0.25 0.15625 0.4375 0.15625 0.09375 0 0.1875-0.015625 0.28125-0.046875s0.17578-0.078125 0.25-0.14062v0.53125c-0.10547 0.042969-0.21094 0.066406-0.3125 0.078125-0.10547 0.019531-0.21094 0.03125-0.3125 0.03125-0.35547 0-0.63672-0.085938-0.84375-0.26562-0.21094-0.1875-0.3125-0.44531-0.3125-0.78125 0-0.33203 0.10156-0.59375 0.3125-0.78125 0.20703-0.1875 0.48828-0.28125 0.84375-0.28125 0.11328 0 0.21875 0.011719 0.3125 0.03125 0.10156 0.011719 0.20703 0.039062 0.3125 0.078125z"/>
  </symbol>
 </defs>
 <g>
  <path d="m551.59 173.29c-0.21875-16.266-13.598-30.719-29.805-32.219l-344.39-31.75c-0.32031-0.03125-2.4961-0.12891-2.8047-0.12891-16.035 0-28.598 12.637-28.598 28.758v278.59c0 16.223 12.656 28.93 28.797 28.93 0.27734 0 2.2188-0.078125 2.4961-0.097656l347.93-28.59c16.402-1.332 29.562-15.844 29.348-32.309zm-384.86 245.32c-0.14844-0.67578-0.37891-1.3125-0.37891-2.0664v-278.6c0-2.0273 0.72656-3.7383 1.8398-5.1406l159.46 140.7zm17.18-288.24 334.81 30.867-125.97 134.14c-5.3867 5.7266-14.871 6.1641-20.758 0.95313zm246.06 143.23 99.371-105.8c1.0742 1.7891 1.8672 3.7266 1.8906 5.7773l2.9219 207.82zm93.586 122.9-345.42 28.391 158.75-143.25 27.039 23.859c5.0898 4.4922 11.512 6.6992 17.934 6.6992 7.2383 0 14.512-2.8438 19.762-8.4297l19.961-21.254 107.76 111.5c-1.6914 1.2969-3.6211 2.3086-5.7852 2.4883z"/>
  <use x="46.863281" y="571.0625" xlink:href="#r"/>
  <use x="49.566406" y="571.0625" xlink:href="#d"/>
  <use x="51.386719" y="571.0625" xlink:href="#b"/>
  <use x="53.886719" y="571.0625" xlink:href="#i"/>
  <use x="56.375" y="571.0625" xlink:href="#c"/>
  <use x="58.136719" y="571.0625" xlink:href="#b"/>
  <use x="60.640625" y="571.0625" xlink:href="#h"/>
  <use x="64.5625" y="571.0625" xlink:href="#g"/>
  <use x="67.203125" y="571.0625" xlink:href="#e"/>
  <use x="70.890625" y="571.0625" xlink:href="#e"/>
  <use x="73.292969" y="571.0625" xlink:href="#a"/>
  <use x="75.828125" y="571.0625" xlink:href="#f"/>
  <use x="78.453125" y="571.0625" xlink:href="#a"/>
  <use x="80.984375" y="571.0625" xlink:href="#a"/>
  <use x="83.519531" y="571.0625" xlink:href="#a"/>
  <use x="46.863281" y="574.75" xlink:href="#q"/>
  <use x="48.464844" y="574.75" xlink:href="#d"/>
  <use x="50.285156" y="574.75" xlink:href="#a"/>
  <use x="52.816406" y="574.75" xlink:href="#p"/>
  <use x="57.945312" y="574.75" xlink:href="#c"/>
  <use x="59.707031" y="574.75" xlink:href="#f"/>
  <use x="62.332031" y="574.75" xlink:href="#b"/>
  <use x="66.117188" y="574.75" xlink:href="#o"/>
  <use x="69.203125" y="574.75" xlink:href="#a"/>
  <use x="71.738281" y="574.75" xlink:href="#n"/>
  <use x="74.363281" y="574.75" xlink:href="#m"/>
  <use x="78.269531" y="574.75" xlink:href="#l"/>
  <use x="80.972656" y="574.75" xlink:href="#d"/>
  <use x="82.792969" y="574.75" xlink:href="#a"/>
  <use x="85.324219" y="574.75" xlink:href="#k"/>
  <use x="86.589844" y="574.75" xlink:href="#b"/>
  <use x="89.089844" y="574.75" xlink:href="#j"/>
  <use x="91.277344" y="574.75" xlink:href="#c"/>
 </g>
</svg>
