<?xml version="1.0" encoding="UTF-8"?>
<svg width="700pt" height="700pt" version="1.1" viewBox="0 0 700 700" xmlns="http://www.w3.org/2000/svg">
 <g>
  <path d="m560 428.75h-420c-13.918-0.015625-27.266-5.5508-37.105-15.395-9.8438-9.8398-15.379-23.188-15.395-37.105v-280c0.015625-13.918 5.5508-27.266 15.395-37.105 9.8398-9.8438 23.188-15.379 37.105-15.395h210c6.2539 0 12.031 3.3359 15.156 8.75s3.125 12.086 0 17.5-8.9023 8.75-15.156 8.75h-210c-4.6406 0.003906-9.0898 1.8477-12.371 5.1289s-5.125 7.7305-5.1289 12.371v280c0.003906 4.6406 1.8477 9.0898 5.1289 12.371s7.7305 5.125 12.371 5.1289h420c4.6406-0.003906 9.0898-1.8477 12.371-5.1289s5.125-7.7305 5.1289-12.371v-122.73c0-6.2539 3.3359-12.031 8.75-15.156s12.086-3.125 17.5 0 8.75 8.9023 8.75 15.156v122.73c-0.015625 13.918-5.5508 27.266-15.395 37.105-9.8398 9.8438-23.188 15.379-37.105 15.395z"/>
  <path d="m437.5 516.25h-175c-5.2422-0.003906-10.207-2.3555-13.527-6.4102-3.3242-4.0547-4.6523-9.3867-3.6211-14.523l17.5-87.5c0.79297-3.9648 2.9336-7.5352 6.0625-10.098 3.125-2.5625 7.043-3.9648 11.086-3.9688h140c4.043 0.003906 7.9609 1.4062 11.086 3.9688 3.1289 2.5625 5.2695 6.1328 6.0625 10.098l17.5 87.5c1.0312 5.1367-0.29688 10.469-3.6211 14.523-3.3203 4.0547-8.2852 6.4062-13.527 6.4102zm-153.65-35h132.3l-10.5-52.5h-111.31z"/>
  <path d="m507.5 516.25h-315c-6.2539 0-12.031-3.3359-15.156-8.75s-3.125-12.086 0-17.5 8.9023-8.75 15.156-8.75h315c6.2539 0 12.031 3.3359 15.156 8.75s3.125 12.086 0 17.5-8.9023 8.75-15.156 8.75z"/>
  <path d="m245 271.25h-70c-6.2539 0-12.031-3.3359-15.156-8.75s-3.125-12.086 0-17.5 8.9023-8.75 15.156-8.75h70c6.2539 0 12.031 3.3359 15.156 8.75s3.125 12.086 0 17.5-8.9023 8.75-15.156 8.75z"/>
  <path d="m315 341.25h-140c-6.2539 0-12.031-3.3359-15.156-8.75s-3.125-12.086 0-17.5 8.9023-8.75 15.156-8.75h140c6.2539 0 12.031 3.3359 15.156 8.75s3.125 12.086 0 17.5-8.9023 8.75-15.156 8.75z"/>
  <path d="m455 201.25c-4.6406 0.003906-9.0938-1.8398-12.371-5.1289l-43.75-43.75c-3.2852-3.2773-5.1289-7.7305-5.1289-12.371s1.8438-9.0938 5.1289-12.371l43.75-43.75c3.2578-3.3789 7.7422-5.3008 12.434-5.3438 4.6953-0.039062 9.207 1.8047 12.527 5.125 3.3203 3.3203 5.1641 7.832 5.125 12.527-0.042969 4.6914-1.9648 9.1758-5.3438 12.434l-31.375 31.379 31.375 31.379c3.2812 3.2812 5.125 7.7305 5.125 12.371s-1.8438 9.0898-5.125 12.375c-3.2812 3.2812-7.7305 5.125-12.371 5.125z"/>
  <path d="m507.52 218.76c-5.4883-0.007812-10.66-2.5898-13.969-6.9727-3.3086-4.3828-4.375-10.062-2.8789-15.348l35-122.5c1.7188-6.0117 6.5156-10.652 12.582-12.172 6.0703-1.5156 12.484 0.32031 16.836 4.8125 4.3477 4.4961 5.9648 10.973 4.2461 16.984l-35 122.5c-1.0469 3.6562-3.2539 6.8672-6.2852 9.1562-3.0352 2.2891-6.7305 3.5312-10.531 3.5391z"/>
 </g>
</svg>
